<?xml version="1.0" encoding="UTF-8"?>
<svg id="Capa_1" data-name="Capa 1" xmlns="http://www.w3.org/2000/svg" viewBox="0 0 1284 419" width="300px" height="98px" preserveAspectRatio="none">
  <defs>
    <style>
      .cls-1 {
        fill: transparent;
      }
    </style>
  </defs>
  <path class="cls-1" d="M1284,0v419H0V0h1284ZM354,84.99c13.62-13.17,24.7-27.5,30.76-45.73.89-2.68,2.51-6.47,1.75-9.25l-147.5,125.48,61,50.08,55.99-58.07c-3.05-1.59-6.62.1-9.62.39-1.11.11-3.6.92-3.37-.87,13.52-4.09,24.98-12.85,34.99-22.52l-27.99,5.01c11.94-7.27,23.27-15.92,32.51-26.49.84-.96,6.18-7.31,5.48-8.01l-38.99,15.5c15.82-11.68,32.32-26.67,38.99-45.5l-33.99,19.99ZM460.5,198h50l11.4-23.38,63.09-.61,4.01,23.99h51l-36.46-160.07-65.05,1.05-77.99,159.01ZM907,198l21.5-160h-42l-8.51,51c-.78.87-10.97-6.54-13.01-7.48-16.9-7.76-41.27-6.58-54.98,6.99-17.5,17.33-24.75,61.62-17.29,84.27,10.53,31.96,47.6,34.27,71.27,15.22l-.99,10h44ZM1040,150c8.83-32.22,4.37-66.24-33.75-72.75-43.52-7.43-77.73,19.55-81.23,63.26-5.6,69.94,68.41,71.02,111.91,40.83l-10.39-26.21c-8.78,3.44-18.14,7.8-27.48,9.42-6.46,1.12-19.05,2.14-25.09,0-2.3-.82-5.12-3.73-6.03-5.96-.79-1.92-2.42-7.31-.42-8.58h72.5ZM1046.07,184.92c26.64,12.41,61.81,22.07,89.8,8.45,23.07-11.22,34.68-49,8.17-62.92-7.02-3.69-38.63-10.28-40.55-13.45-1.05-1.74-.8-5.01.42-6.61,5.25-6.89,40.11,2.25,48.49,4.44l13.16-26.83c.47-1.02.72-2.05.01-3.06-1.49-2.14-32.47-7.49-37.09-7.94-25.38-2.47-58.29.49-66.01,29.97-4.45,16.99-2.31,31.47,14.15,39.9,6.07,3.11,36.13,10.47,37.24,13.79,4.18,12.49-25.33,5.33-30.86,3.83-8.05-2.18-15.38-6.08-23.35-8.42l-13.59,28.84ZM697,198l9.22-68.28c6.5-8.36,31.4-20.42,30.86-1.19l-9.66,67.43,1.09,2.05h42c1.87-1.75,1.88-5.09,2.33-7.67,3.78-21.65,8.66-50.28,10.15-71.85,1.93-27.82-4.33-44.18-35.52-41.52-13.21,1.12-23.8,8.78-35.46,14.03l.99-12h-44l-16,119h44ZM154.78,136.28c-2.24.27-15.77,3.69-15.76,5.22l34.68,29.37,4.24-1.43,21-18.05c-9.8-12.17-29.06-16.95-44.17-15.11ZM371.5,345h67l1.01-2-210.02-179.74L22,343.99c42.82-17.31,80.26-45.52,114.5-75.99l-66.5,74.99c2.21,2.02,38.78-24.43,42.89-27.6,8.51-6.57,17.16-13.66,25.12-20.88,3.44-3.12,15-16.39,17.5-17.51.44-.2,1.64-.25,1.48.49l-48.99,65.5,24.9-17.59c14.11-12.14,28.82-23.89,40.6-38.4l-.91,3.1-33.59,52.9c19.48-13.59,37.51-30.8,51.49-50-.33,6.17-2.28,13.04-4.01,18.99s-3.72,12.15-6.49,17.51l1.97.48,59.35-61.85,97.37,65.66c8.26,4.59,23.53,10.21,32.81,11.19ZM592.74,227.24c-14.92,2.51-16.64,25.31.77,26.77,23.3,1.95,23.64-30.87-.77-26.77ZM959,237h-27l-15,106h27l15-106ZM539.9,286.93l7.99-15.45c-31.24-19.74-71.09-8.41-75.62,31.3-5.31,46.54,39.34,51.22,70.67,31.14l-5.96-15.91c-16.83,4.92-42.25,15.4-38.88-13.4,2.8-23.92,23.2-24.12,41.79-17.68ZM664.5,263h-24l-12.5,80h27l5.75-41.75c6.96-11.83,18.39-13.14,31.14-12.36l3.68-25.96c-12.75-4.06-22.95,2.07-31.56,11.07l1.57-8.96-1.08-2.04ZM776.96,318.03c-10.21,2.54-29.55,11.98-36.97.48-5.29-8.2-.03-26.43,8.07-31.94,12.03-8.17,29.38,1.62,31.94,0l7.9-14.22c.32-2.07-7.67-5.35-9.64-6.1-29.18-11.21-58.31-.28-64.81,31.71-9.95,48.91,36.26,58.45,69.48,35.45l-5.96-15.38ZM1123,263h-26l-11,80h26c5.54-18.28-1.68-51.19,24.49-54.01,4.28-.46,9.15.34,13.51.01l4.06-25.38c-11.97-5.59-24.15,1.6-32.06,10.38l.99-11ZM606,263h-25.5l-12.5,80h27l11-80ZM896,263h-25.5l-1.45,2.55-6.25,47.75c-5.84,6.88-23.91,13.02-24.83-.83l6.61-47.43-1.08-2.04h-24c-1.66,1.42-1.82,3.78-2.21,5.79-2.78,14.12-7.74,44.27-6.29,57.72,1.99,18.49,23.98,21.62,38.36,15.35,4.89-2.13,12.62-9.94,8.64,1.14h27l11-80ZM1027,343h27l10.95-77.6c.23-.83-1.02-2.4-1.45-2.4h-24c-2.26,1.62-1.43,4.56-1.51,7-10.98-5.49-19.72-8.57-32.41-6.91-24.96,3.26-32.5,42.68-26.73,62.56,6.55,22.57,32.5,24.16,49.14,11.35l-.99,6Z"/>
  <path d="M371.5,345c-9.28-.99-24.55-6.6-32.81-11.19l-97.37-65.66-59.35,61.85-1.97-.48c2.77-5.36,4.81-11.72,6.49-17.51s3.67-12.82,4.01-18.99c-13.98,19.2-32.02,36.4-51.49,50l33.59-52.9.91-3.1c-11.78,14.51-26.5,26.26-40.6,38.4l-24.9,17.59,48.99-65.5c.16-.74-1.05-.68-1.48-.49-2.49,1.12-14.06,14.38-17.5,17.51-7.96,7.22-16.61,14.31-25.12,20.88-4.11,3.17-40.68,29.61-42.89,27.6l66.5-74.99c-34.25,30.46-71.68,58.67-114.5,75.99l207.49-180.73,210.02,179.74-1.01,2h-67Z"/>
  <path d="M460.5,198l77.99-159.01,65.05-1.05,36.46,160.07h-51l-4.01-23.99-63.09.61-11.4,23.38h-50ZM576,132l-9.5-52.01-23.5,52.01h33Z"/>
  <path d="M907,198h-44l.99-10c-23.67,19.05-60.74,16.74-71.27-15.22-7.46-22.65-.21-66.95,17.29-84.27,13.71-13.57,38.07-14.75,54.98-6.99,2.04.94,12.23,8.35,13.01,7.48l8.51-51h42l-21.5,160ZM850.73,114.23c-14.68,3-19.4,28.66-16.25,40.8,3.67,14.2,29.2,7.15,34.48-2.58l3.57-31.45c-6.24-5.59-13.31-8.51-21.8-6.77Z"/>
  <path d="M697,198h-44l16-119h44l-.99,12c11.65-5.25,22.25-12.91,35.46-14.03,31.19-2.65,37.45,13.7,35.52,41.52-1.49,21.57-6.38,50.2-10.15,71.85-.45,2.58-.47,5.92-2.33,7.67h-42l-1.09-2.05,9.66-67.43c.54-19.23-24.35-7.17-30.86,1.19l-9.22,68.28Z"/>
  <path d="M1040,150h-72.5c-2,1.26-.37,6.66.42,8.58.92,2.23,3.74,5.15,6.03,5.96,6.04,2.15,18.63,1.12,25.09,0,9.35-1.61,18.71-5.98,27.48-9.42l10.39,26.21c-43.5,30.19-117.51,29.11-111.91-40.83,3.5-43.72,37.71-70.69,81.23-63.26,38.12,6.51,42.58,40.53,33.75,72.75ZM1006,126c4.56-29.26-31.74-21.87-36,0h36Z"/>
  <path d="M354,84.99l33.99-19.99c-6.67,18.84-23.16,33.82-38.99,45.5l38.99-15.5c.7.71-4.64,7.05-5.48,8.01-9.24,10.57-20.57,19.22-32.51,26.49l27.99-5.01c-10,9.66-21.47,18.42-34.99,22.52-.23,1.78,2.25.97,3.37.87,3-.29,6.57-1.97,9.62-.39l-55.99,58.07-61-50.08L386.5,30c.77,2.79-.86,6.58-1.75,9.25-6.06,18.24-17.13,32.56-30.76,45.73Z"/>
  <path d="M1046.07,184.92l13.59-28.84c7.96,2.33,15.3,6.24,23.35,8.42,5.53,1.5,35.04,8.66,30.86-3.83-1.11-3.32-31.18-10.68-37.24-13.79-16.46-8.43-18.6-22.91-14.15-39.9,7.72-29.48,40.63-32.44,66.01-29.97,4.62.45,35.6,5.8,37.09,7.94.71,1.01.46,2.04-.01,3.06l-13.16,26.83c-8.39-2.19-43.24-11.33-48.49-4.44-1.22,1.6-1.47,4.86-.42,6.61,1.92,3.16,33.52,9.76,40.55,13.45,26.51,13.91,14.91,51.69-8.17,62.92-27.99,13.61-63.16,3.95-89.8-8.45Z"/>
  <path d="M1027,343l.99-6c-16.64,12.8-42.59,11.22-49.14-11.35-5.77-19.89,1.77-59.3,26.73-62.56,12.69-1.66,21.43,1.42,32.41,6.91.07-2.43-.76-5.37,1.51-7h24c.43,0,1.68,1.56,1.45,2.4l-10.95,77.6h-27ZM1017.75,284.23c-12.23,1.93-16.99,23.31-13.26,32.79,4.51,11.47,24.8,4.92,27.26-4.78.97-3.83,3-19.18,1.73-22.22-1.86-4.45-11.37-6.47-15.73-5.79Z"/>
  <path d="M896,263l-11,80h-27c3.98-11.09-3.75-3.27-8.64-1.14-14.38,6.26-36.37,3.13-38.36-15.35-1.45-13.44,3.51-43.6,6.29-57.72.4-2.01.55-4.36,2.21-5.79h24l1.08,2.04-6.61,47.43c.92,13.84,18.99,7.71,24.83.83l6.25-47.75,1.45-2.55h25.5Z"/>
  <path d="M539.9,286.93c-18.59-6.44-39-6.24-41.79,17.68-3.37,28.8,22.05,18.32,38.88,13.4l5.96,15.91c-31.33,20.09-75.97,15.4-70.67-31.14,4.53-39.7,44.38-51.04,75.62-31.3l-7.99,15.45Z"/>
  <path d="M776.96,318.03l5.96,15.38c-33.22,23-79.43,13.46-69.48-35.45,6.51-31.99,35.64-42.92,64.81-31.71,1.97.76,9.96,4.04,9.64,6.1l-7.9,14.22c-2.56,1.63-19.91-8.17-31.94,0-8.1,5.5-13.36,23.74-8.07,31.94,7.42,11.5,26.76,2.06,36.97-.48Z"/>
  <path d="M664.5,263l1.08,2.04-1.57,8.96c8.61-9,18.81-15.12,31.56-11.07l-3.68,25.96c-12.76-.78-24.18.52-31.14,12.36l-5.75,41.75h-27l12.5-80h24Z"/>
  <path d="M1123,263l-.99,11c7.91-8.78,20.08-15.97,32.06-10.38l-4.06,25.38c-4.36.33-9.23-.47-13.51-.01-26.17,2.81-18.95,35.73-24.49,54.01h-26l11-80h26Z"/>
  <polygon points="959 237 944 343 917 343 932 237 959 237"/>
  <polygon points="606 263 595 343 568 343 580.5 263 606 263"/>
  <path d="M154.78,136.28c15.11-1.84,34.38,2.94,44.17,15.11l-21,18.05-4.24,1.43-34.68-29.37c0-1.53,13.52-4.95,15.76-5.22Z"/>
  <path d="M592.74,227.24c24.41-4.1,24.06,28.71.77,26.77-17.41-1.45-15.69-24.26-.77-26.77Z"/>
  <polygon class="cls-1" points="576 132 543 132 566.5 79.99 576 132"/>
  <path class="cls-1" d="M850.73,114.23c8.49-1.73,15.55,1.18,21.8,6.77l-3.57,31.45c-5.28,9.72-30.81,16.78-34.48,2.58-3.14-12.15,1.57-37.81,16.25-40.8Z"/>
  <path class="cls-1" d="M1006,126h-36c4.26-21.87,40.56-29.26,36,0Z"/>
  <path class="cls-1" d="M1017.75,284.23c4.36-.69,13.87,1.34,15.73,5.79,1.27,3.04-.76,18.39-1.73,22.22-2.45,9.7-22.74,16.25-27.26,4.78-3.73-9.48,1.03-30.86,13.26-32.79Z"/>
</svg>