<?xml version="1.0" encoding="UTF-8"?>
<svg id="Layer_2" data-name="Layer 2" xmlns="http://www.w3.org/2000/svg" viewBox="0 0 77 20" width="300px" height="78px" preserveAspectRatio="none">
  <defs>
    <style>
      .cls-1 {
        fill: #000;
      }

      .cls-1, .cls-2 {
        stroke-width: 0px;
      }

      .cls-2 {
        fill: #fff;
      }
    </style>
  </defs>
  <g id="Capa_1" data-name="Capa 1">
    <g>
      <g>
        <path class="cls-1" d="M12.9,19.47s-.22.4.69-.55,3.1-3.51,3.4-3.83.91-1.06.87-1.21-.28-.76.45-.76.44.79.22.97c-.1.08.15,1.19.18,1.49s0,.75,0,.75c0,0,.98-.25,1.27-.43s.7-.19.83-.54.28-.78.9-1.53c.53-.64,1.02-1,1.34-.51s-.12,1.07-.43,1.39c-.66.68-1.47,1.01-1.49,1.08s.02,1.28.71,1.48c.85.25,1.13-.39,1.19-.65s.45.1.39.23-.41,1-1.21.94c-.56-.04-.95-.13-1.21-.61s-.35-1.18-.35-1.18c0,0-1.71.75-1.97.75,0,0-.21,1.03-.53,1.24-.33.23-.64-.01-.79-.23s-.37-.42-.43-.45-.3.03-.42-.21-.09-.57.15-.65c.32-.11.47.27.47.27,0,0,.24.02.57-.06.3-.08.6-.24.6-.24,0,0,.04-.55-.02-1.07s-.24-.9-.24-.9c0,0-1.73,2.21-2.06,2.49s-2.46,2.83-2.51,2.88-.08.21-.16.19-.48-.21-.4-.55Z"/>
        <path class="cls-2" d="M17.76,17.11c.2.08.39-.24.39-.18,0,.05-.09.66-.2.65-.11-.01-.29-.17-.35-.21-.05-.03-.15-.02-.11-.12s.15-.18.26-.14Z"/>
        <path class="cls-2" d="M21.32,15.17s.28-.57.62-1c.3-.37.59-.65.7-.55s-.02.5-.44.91c-.47.47-.8.68-.88.64Z"/>
        <path class="cls-1" d="M26.16,13.52c-.88.1-1.39,1.56-1.34,2.17s.23,1.43.79,1.73,1.46.45,2.24-.92.46-.75.46-.75c0,0-.02.62.09,1.11s.46,1.3.77,1.21c.44-.12.36-.65.36-1.1,0-.55-.23-1.11-.35-1.26s-.32-.35-.26-.39.79.01,1.4.04.92.01,1.08.3.22.33.25.62,0,1.31.09,1.43.3.33.43.26c.22-.11.07-.26.09-.68s-.03-1.14,0-1.41.12-.51.23-.48.27.64.98,1.02c.67.35,1.25.5,1.87.57s1.14.01,1.14.01c0,0,0,.68.35.71s.62-.57.78-.87.33-1.16.43-1.18.47,2.12,2.21,2.15c1.52.02,2.31-.72,2.46-1s-.25-.46-.3-.38-.52.78-1.36.92-1.72,0-2.14-.69c-.55-.89-.65-1.51-.73-1.82-.04-.16.06-.81.05-1.74,0-.36,0-1.75-.44-1.78s-.42,1.11-.38,1.67.15,1.35.2,1.53c.06.23.1.42.09.53s-.38.58-.52.85c-.14.24-.29.55-.46.64-.23.12-.51.09-1.52-.06s-1.78-.49-2.09-1-.36-.71-.58-.69-.5.17-.5.38-.03.4-.09.4-.1-.19-.36-.42c-.43-.37-1.18-.24-1.86-.32-.49-.06-.81-.01-.81-.01,0,0,0-.3-.31-.3s-.25.27-.32.31-.22.07-.29.04-.1-.11-.26-.06-.34.17-.35.38c-.01.19.12.39.34.33s.29-.12.29-.12c0,0-.43.76-.64,1.01-.3.36-.59.82-1.4.61s-.72-1.62-.56-1.98.55-1.04.78-.98.43.59.46.72.13.27.29.23.19-.43.16-.55-.26-1.07-.92-1Z"/>
        <path class="cls-1" d="M45.73,12.55s.1,1.63.17,2.34.36,1.95.36,2.15-.01.55.2.68.33.16.38,0-.1-.62-.09-.75-.09-1.62.17-1.62,1,.94,1.76,1.27,1.71.73,2.05.81c.28.06.48.03.48.03,0,0,.03.28.32.26s.46-.22.56-.54.12-.74.12-.74c0,0,.37.68.84.87.31.12,1.05.23,1.47-.45s.48-1.28.58-1.31.39.53.43.76c.15.78.23.8.44.79.25-.01.37-.06.38-.27,0-.09,0-.2,0-.27s0-.24,0-.45c0-.14-.01-.29,0-.35s.27.27.63.42c.45.19.97.22,1.3.26.3.03.53.03.53.03,0,0-.66,1.34.24,1.61.69.2.91-.19,1.09-.36s.29-.68.35-.72.53.61.89.89,1.21.75,1.54.87.72.3.85,0-.16-.51-.38-.55-1.2-.3-1.59-.62-1.09-1.17-1.1-1.25.37-1.65.24-3.15c-.11-1.31-.38-2.35-.49-2.6s-.41-.68-.71-.64c-.57.09-.62,1.08-.62,1.85,0,.97.12,1.62.32,2.34.38,1.42.71,1.57.69,1.93s-.18.98-.36,1.21c-.19.26-.37.4-.58.29-.14-.07-.12-.39.04-.68s.35-.66.51-.71c.3-.1.35-.31.04-.49-.09-.05-.25-.12-.44.01s-.18.26-.37.25-.49,0-1.05-.06-.89-.17-1.05-.35-.4-.59-.66-.71c-.45-.2-.33.37-.33.58,0,.27.08.47,0,.46s-.4-1.04-.76-1.04-.43.33-.53.69-.42,1.28-.98,1.31-.82-.36-.98-.71-.04-1.1-.17-1.26-.06-.3-.52-.27c-.23.01-.47.93-.62,1.5-.13.47-.14.8-.23.83s-.73-.02-1.45-.36-.97-.43-1.41-.79-.88-1.13-1.27-1.1c-.66.06-.46.79-.53.84s-.23-1.7-.23-2.18-.09-1.78-.06-2.01.12-.94-.39-.94-.22.71-.22,1-.04.87.09,1l.13.13Z"/>
        <path class="cls-2" d="M60.44,15.57s.19-1.28.16-2.02-.33-2.87-.66-2.87-.45,1.1-.32,2.05c.17,1.21.65,2.81.82,2.84Z"/>
        <path class="cls-2" d="M29.12,16.56c.03.43.09.81,0,.81s-.25-.25-.35-.66c-.11-.47-.1-.89,0-.92s.31.35.35.78Z"/>
      </g>
      <g>
        <path class="cls-1" d="M0,.12h1.5v2.98L4.26.12h1.81l-2.77,2.89,2.9,3.92h-1.8l-2.11-2.9-.79.82v2.08H0V.12Z"/>
        <path class="cls-1" d="M11.19.07h1.38l2.92,6.86h-1.57l-.62-1.53h-2.88l-.62,1.53h-1.53L11.19.07ZM12.76,4.08l-.9-2.21-.91,2.21h1.81Z"/>
        <path class="cls-1" d="M18.48.12h3.11c.87,0,1.54.24,1.99.69.38.38.58.91.58,1.56v.02c0,1.1-.59,1.79-1.46,2.11l1.66,2.43h-1.75l-1.46-2.18h-1.18v2.18h-1.5V.12ZM21.5,3.43c.73,0,1.15-.39,1.15-.96v-.02c0-.64-.45-.97-1.18-.97h-1.49v1.96h1.52Z"/>
        <path class="cls-1" d="M29.13,4.24L26.51.12h1.75l1.63,2.73L31.55.12h1.7l-2.62,4.1v2.71h-1.5v-2.69Z"/>
        <path class="cls-1" d="M36.13.12h1.38l3.19,4.19V.12h1.48v6.81h-1.27l-3.3-4.33v4.33h-1.48V.12Z"/>
        <path class="cls-1" d="M50.31,3.54v-.02c0-1.94,1.46-3.52,3.55-3.52,1.28,0,2.05.43,2.69,1.05l-.95,1.1c-.52-.48-1.06-.77-1.74-.77-1.15,0-1.97.95-1.97,2.12v.02c0,1.17.81,2.14,1.97,2.14.78,0,1.26-.31,1.79-.8l.95.96c-.7.75-1.48,1.21-2.79,1.21-2,0-3.49-1.55-3.49-3.5Z"/>
        <path class="cls-1" d="M59.24,3.54v-.02c0-1.94,1.53-3.52,3.63-3.52s3.61,1.57,3.61,3.5v.02c0,1.94-1.53,3.52-3.63,3.52s-3.61-1.57-3.61-3.5ZM64.92,3.54v-.02c0-1.17-.86-2.14-2.06-2.14s-2.04.95-2.04,2.12v.02c0,1.17.86,2.14,2.06,2.14s2.04-.95,2.04-2.12Z"/>
        <path class="cls-1" d="M69.46,3.54v-.02c0-1.94,1.53-3.52,3.63-3.52s3.61,1.57,3.61,3.5v.02c0,1.94-1.53,3.52-3.63,3.52s-3.61-1.57-3.61-3.5ZM75.13,3.54v-.02c0-1.17-.86-2.14-2.06-2.14s-2.04.95-2.04,2.12v.02c0,1.17.86,2.14,2.06,2.14s2.04-.95,2.04-2.12Z"/>
      </g>
    </g>
  </g>
</svg>