<?xml version="1.0" standalone="no"?>
<!DOCTYPE svg PUBLIC "-//W3C//DTD SVG 20010904//EN"
 "http://www.w3.org/TR/2001/REC-SVG-20010904/DTD/svg10.dtd">
<svg version="1.0" xmlns="http://www.w3.org/2000/svg" width="1911px" height="649px" viewBox="0 0 1433 487" preserveAspectRatio="none">

<g transform="translate(0.000000,487.000000) scale(0.100000,-0.100000)"
fill="#000000" stroke="none">
<path d="M2245 4484 c-311 -36 -505 -90 -750 -209 -850 -413 -1316 -1356
-1129 -2285 83 -412 290 -789 595 -1085 231 -224 500 -387 797 -485 899 -295
1867 43 2397 836 348 520 437 1190 239 1795 -258 785 -954 1344 -1783 1428
-96 10 -296 13 -366 5z m335 -339 c263 -18 557 -122 801 -284 386 -256 651
-649 751 -1111 20 -92 22 -134 23 -345 0 -215 -2 -251 -24 -350 -117 -549
-480 -1008 -981 -1243 -215 -100 -427 -151 -673 -159 -192 -7 -324 7 -502 52
-701 179 -1220 774 -1305 1497 -17 146 -8 390 20 532 46 234 153 485 287 676
102 144 312 349 453 443 202 133 414 223 633 268 108 22 298 38 382 33 28 -2
88 -6 135 -9z"/>
<path d="M2332 3744 c-18 -9 -43 -31 -55 -48 -22 -30 -22 -38 -25 -367 l-3
-335 -67 -27 -67 -26 -230 229 c-126 126 -243 234 -258 239 -133 51 -272 -96
-212 -223 8 -17 116 -132 239 -255 l223 -223 -28 -67 -28 -66 -335 -5 c-318
-5 -336 -6 -362 -26 -73 -54 -93 -136 -52 -214 43 -84 46 -84 421 -90 l328 -5
24 -60 c14 -33 25 -64 25 -70 0 -5 -103 -113 -229 -240 -150 -150 -232 -240
-237 -258 -25 -105 53 -207 158 -207 27 0 59 5 71 11 12 6 123 112 247 235
l226 225 54 -24 c30 -14 63 -27 73 -30 16 -6 17 -31 17 -335 0 -325 0 -329 23
-362 32 -48 69 -72 120 -77 61 -7 128 25 159 75 23 36 23 43 26 370 3 279 5
332 17 332 8 0 39 11 68 24 l54 24 219 -220 c121 -121 231 -226 246 -234 15
-8 49 -14 76 -14 115 0 193 117 151 227 -5 15 -111 129 -234 253 l-224 225 26
68 27 67 316 0 c308 0 317 1 360 23 59 30 82 64 88 131 4 46 0 62 -21 99 -45
76 -49 77 -419 77 l-324 0 -31 69 -30 69 224 223 c123 123 231 236 239 251 8
15 14 45 14 68 0 110 -90 185 -197 165 -33 -6 -71 -40 -275 -242 l-236 -236
-66 29 -65 28 -3 326 c-3 304 -4 327 -23 359 -31 53 -67 74 -132 78 -40 3 -68
-1 -91 -13z m230 -1012 c74 -37 134 -96 170 -170 30 -61 33 -75 33 -157 -1
-78 -4 -98 -29 -147 -35 -73 -100 -139 -174 -175 -51 -25 -68 -28 -152 -28
-86 1 -100 4 -155 32 -182 94 -251 303 -160 483 42 83 123 151 215 181 14 5
66 7 115 6 71 -2 100 -7 137 -25z"/>
<path d="M11105 4450 c-80 -14 -155 -58 -192 -113 -56 -84 -56 -85 -60 -590
l-4 -467 -38 47 c-160 203 -414 298 -701 264 -127 -15 -197 -35 -305 -86 -274
-128 -466 -408 -540 -785 -23 -118 -31 -372 -15 -512 58 -533 333 -882 775
-984 109 -26 331 -25 430 0 202 52 347 161 432 326 l28 55 5 -110 c5 -97 9
-116 35 -164 61 -112 204 -158 356 -115 78 22 132 69 161 142 l23 57 0 1400 0
1400 -23 57 c-54 133 -203 206 -367 178z m-565 -1377 c107 -36 192 -113 253
-231 124 -237 129 -622 12 -870 -91 -193 -283 -296 -487 -263 -207 33 -358
196 -415 446 -27 122 -25 388 5 510 61 242 201 396 387 424 74 11 185 4 245
-16z"/>
<path d="M5248 3587 c-103 -29 -176 -108 -198 -211 -7 -35 -10 -355 -8 -1001
3 -1060 -1 -996 73 -1082 53 -62 120 -87 235 -87 123 -1 178 15 239 70 88 79
85 55 92 669 7 583 11 639 64 782 68 183 174 242 432 243 190 0 292 79 323
248 42 236 -163 419 -420 372 -101 -18 -166 -54 -246 -135 -78 -79 -145 -196
-187 -329 l-22 -71 -5 170 c-6 189 -13 215 -74 283 -66 72 -197 107 -298 79z"/>
<path d="M7680 3593 c-77 -6 -209 -33 -294 -60 -330 -104 -578 -354 -686 -691
-49 -151 -64 -257 -64 -447 0 -226 28 -387 99 -563 96 -237 285 -431 515 -528
179 -75 404 -111 635 -100 355 16 613 119 806 322 138 146 222 323 271 566 30
153 32 425 4 573 -19 102 -72 267 -108 340 -80 159 -249 342 -394 426 -218
127 -496 185 -784 162z m267 -487 c243 -65 380 -283 400 -636 15 -274 -57
-520 -192 -655 -104 -104 -209 -141 -380 -133 -88 4 -111 9 -170 37 -92 43
-145 88 -198 169 -94 143 -130 282 -130 512 0 121 4 177 21 255 51 240 189
405 377 451 69 17 209 17 272 0z"/>
<path d="M12783 3590 c-299 -31 -549 -135 -701 -288 -181 -184 -179 -408 4
-498 42 -21 70 -27 122 -28 92 0 137 23 267 144 120 111 188 151 301 180 86
22 227 27 314 10 68 -13 157 -53 194 -88 90 -85 87 -267 -6 -333 -50 -36 -112
-48 -421 -84 -528 -61 -714 -122 -878 -285 -116 -115 -164 -231 -175 -420 -19
-318 177 -575 512 -672 67 -19 102 -23 229 -22 326 1 567 93 788 302 31 30 57
53 57 50 0 -2 5 -31 11 -64 33 -177 143 -275 330 -291 120 -10 243 44 293 130
41 69 42 107 5 247 l-33 125 -6 685 c-5 521 -9 695 -19 725 -81 248 -314 405
-683 459 -129 19 -395 28 -505 16z m565 -1471 c-3 -133 -4 -136 -40 -210 -78
-157 -224 -252 -430 -279 -262 -35 -459 98 -434 291 13 96 57 154 155 204 72
36 139 52 355 86 197 30 332 65 371 95 19 14 20 13 23 -18 2 -18 2 -94 0 -169z"/>
</g>
</svg>
